<svg height="2254" width="720" xmlns="http://www.w3.org/2000/svg">
<rect height="2254" fill="#555" width="720"></rect>
<text fill="#7f7" font-family="Courier New" font-size="12" xml:space="preserve">
<tspan x="10" y="26">15 megabytes</tspan>
<tspan x="10" y="42">└─┬ mailin@3.0.4 </tspan>
<tspan x="10" y="58">  ├── bluebird@2.11.0 </tspan>
<tspan x="10" y="74">  ├─┬ commander@2.9.0 </tspan>
<tspan x="10" y="90">  │ └── graceful-readlink@1.0.1 </tspan>
<tspan x="10" y="106">  ├── extend@2.0.1 </tspan>
<tspan x="10" y="122">  ├─┬ forever-monitor@1.7.1 </tspan>
<tspan x="10" y="138">  │ ├─┬ broadway@0.3.6 </tspan>
<tspan x="10" y="154">  │ │ ├─┬ cliff@0.1.9 </tspan>
<tspan x="10" y="170">  │ │ │ └── winston@0.8.3 </tspan>
<tspan x="10" y="186">  │ │ ├── eventemitter2@0.4.14 </tspan>
<tspan x="10" y="202">  │ │ ├─┬ nconf@0.6.9 </tspan>
<tspan x="10" y="218">  │ │ │ ├── async@0.2.9 </tspan>
<tspan x="10" y="234">  │ │ │ └── ini@1.3.4 </tspan>
<tspan x="10" y="250">  │ │ └─┬ winston@0.8.0 </tspan>
<tspan x="10" y="266">  │ │   └── colors@0.6.2 </tspan>
<tspan x="10" y="282">  │ ├─┬ chokidar@1.6.1 </tspan>
<tspan x="10" y="298">  │ │ ├─┬ anymatch@1.3.0 </tspan>
<tspan x="10" y="314">  │ │ │ ├── arrify@1.0.1 </tspan>
<tspan x="10" y="330">  │ │ │ └─┬ micromatch@2.3.11 </tspan>
<tspan x="10" y="346">  │ │ │   ├─┬ arr-diff@2.0.0 </tspan>
<tspan x="10" y="362">  │ │ │   │ └── arr-flatten@1.0.1 </tspan>
<tspan x="10" y="378">  │ │ │   ├── array-unique@0.2.1 </tspan>
<tspan x="10" y="394">  │ │ │   ├─┬ braces@1.8.5 </tspan>
<tspan x="10" y="410">  │ │ │   │ ├─┬ expand-range@1.8.2 </tspan>
<tspan x="10" y="426">  │ │ │   │ │ └─┬ fill-range@2.2.3 </tspan>
<tspan x="10" y="442">  │ │ │   │ │   ├── is-number@2.1.0 </tspan>
<tspan x="10" y="458">  │ │ │   │ │   ├── isobject@2.1.0 </tspan>
<tspan x="10" y="474">  │ │ │   │ │   ├── randomatic@1.1.6 </tspan>
<tspan x="10" y="490">  │ │ │   │ │   └── repeat-string@1.6.1 </tspan>
<tspan x="10" y="506">  │ │ │   │ ├── preserve@0.2.0 </tspan>
<tspan x="10" y="522">  │ │ │   │ └── repeat-element@1.1.2 </tspan>
<tspan x="10" y="538">  │ │ │   ├─┬ expand-brackets@0.1.5 </tspan>
<tspan x="10" y="554">  │ │ │   │ └── is-posix-bracket@0.1.1 </tspan>
<tspan x="10" y="570">  │ │ │   ├── extglob@0.3.2 </tspan>
<tspan x="10" y="586">  │ │ │   ├── filename-regex@2.0.0 </tspan>
<tspan x="10" y="602">  │ │ │   ├─┬ kind-of@3.1.0 </tspan>
<tspan x="10" y="618">  │ │ │   │ └── is-buffer@1.1.5 </tspan>
<tspan x="10" y="634">  │ │ │   ├─┬ normalize-path@2.1.1 </tspan>
<tspan x="10" y="650">  │ │ │   │ └── remove-trailing-separator@1.0.1 </tspan>
<tspan x="10" y="666">  │ │ │   ├─┬ object.omit@2.0.1 </tspan>
<tspan x="10" y="682">  │ │ │   │ ├─┬ for-own@0.1.5 </tspan>
<tspan x="10" y="698">  │ │ │   │ │ └── for-in@1.0.2 </tspan>
<tspan x="10" y="714">  │ │ │   │ └── is-extendable@0.1.1 </tspan>
<tspan x="10" y="730">  │ │ │   ├─┬ parse-glob@3.0.4 </tspan>
<tspan x="10" y="746">  │ │ │   │ ├── glob-base@0.3.0 </tspan>
<tspan x="10" y="762">  │ │ │   │ └── is-dotfile@1.0.2 </tspan>
<tspan x="10" y="778">  │ │ │   └─┬ regex-cache@0.4.3 </tspan>
<tspan x="10" y="794">  │ │ │     ├── is-equal-shallow@0.1.3 </tspan>
<tspan x="10" y="810">  │ │ │     └── is-primitive@2.0.0 </tspan>
<tspan x="10" y="826">  │ │ ├── async-each@1.0.1 </tspan>
<tspan x="10" y="842">  │ │ ├── glob-parent@2.0.0 </tspan>
<tspan x="10" y="858">  │ │ ├── inherits@2.0.3 </tspan>
<tspan x="10" y="874">  │ │ ├─┬ is-binary-path@1.0.1 </tspan>
<tspan x="10" y="890">  │ │ │ └── binary-extensions@1.8.0 </tspan>
<tspan x="10" y="906">  │ │ ├─┬ is-glob@2.0.1 </tspan>
<tspan x="10" y="922">  │ │ │ └── is-extglob@1.0.0 </tspan>
<tspan x="10" y="938">  │ │ ├── path-is-absolute@1.0.1 </tspan>
<tspan x="10" y="954">  │ │ └─┬ readdirp@2.1.0 </tspan>
<tspan x="10" y="970">  │ │   ├── graceful-fs@4.1.11 </tspan>
<tspan x="10" y="986">  │ │   ├─┬ readable-stream@2.2.6 </tspan>
<tspan x="10" y="1002">  │ │   │ ├── buffer-shims@1.0.0 </tspan>
<tspan x="10" y="1018">  │ │   │ ├── isarray@1.0.0 </tspan>
<tspan x="10" y="1034">  │ │   │ ├── process-nextick-args@1.0.7 </tspan>
<tspan x="10" y="1050">  │ │   │ └── util-deprecate@1.0.2 </tspan>
<tspan x="10" y="1066">  │ │   └── set-immediate-shim@1.0.1 </tspan>
<tspan x="10" y="1082">  │ ├─┬ minimatch@3.0.3 </tspan>
<tspan x="10" y="1098">  │ │ └─┬ brace-expansion@1.1.6 </tspan>
<tspan x="10" y="1114">  │ │   ├── balanced-match@0.4.2 </tspan>
<tspan x="10" y="1130">  │ │   └── concat-map@0.0.1 </tspan>
<tspan x="10" y="1146">  │ ├─┬ ps-tree@0.0.3 </tspan>
<tspan x="10" y="1162">  │ │ └─┬ event-stream@0.5.3 </tspan>
<tspan x="10" y="1178">  │ │   └── optimist@0.2.8 </tspan>
<tspan x="10" y="1194">  │ └─┬ utile@0.2.1 </tspan>
<tspan x="10" y="1210">  │   ├── async@0.2.10 </tspan>
<tspan x="10" y="1226">  │   ├── deep-equal@1.0.1 </tspan>
<tspan x="10" y="1242">  │   ├── i@0.3.5 </tspan>
<tspan x="10" y="1258">  │   ├─┬ mkdirp@0.5.1 </tspan>
<tspan x="10" y="1274">  │   │ └── minimist@0.0.8 </tspan>
<tspan x="10" y="1290">  │   ├── ncp@0.4.2 </tspan>
<tspan x="10" y="1306">  │   └─┬ rimraf@2.6.1 </tspan>
<tspan x="10" y="1322">  │     └─┬ glob@7.1.1 </tspan>
<tspan x="10" y="1338">  │       ├── fs.realpath@1.0.0 </tspan>
<tspan x="10" y="1354">  │       ├─┬ inflight@1.0.6 </tspan>
<tspan x="10" y="1370">  │       │ └── wrappy@1.0.2 </tspan>
<tspan x="10" y="1386">  │       └── once@1.4.0 </tspan>
<tspan x="10" y="1402">  ├─┬ html-to-text@1.6.2 </tspan>
<tspan x="10" y="1418">  │ ├── htmlparser@1.7.7 </tspan>
<tspan x="10" y="1434">  │ ├─┬ optimist@0.6.0 </tspan>
<tspan x="10" y="1450">  │ │ ├── minimist@0.0.10 </tspan>
<tspan x="10" y="1466">  │ │ └── wordwrap@0.0.3 </tspan>
<tspan x="10" y="1482">  │ ├── underscore@1.8.3 </tspan>
<tspan x="10" y="1498">  │ └── underscore.string@2.4.0 </tspan>
<tspan x="10" y="1514">  ├── languagedetect@1.1.1 </tspan>
<tspan x="10" y="1530">  ├── lodash@3.10.1 </tspan>
<tspan x="10" y="1546">  ├─┬ mailparser@0.5.3 </tspan>
<tspan x="10" y="1562">  │ ├─┬ encoding@0.1.12 </tspan>
<tspan x="10" y="1578">  │ │ └── iconv-lite@0.4.15 </tspan>
<tspan x="10" y="1594">  │ ├── mime@1.3.4 </tspan>
<tspan x="10" y="1610">  │ ├─┬ mimelib@0.2.19 </tspan>
<tspan x="10" y="1626">  │ │ └── addressparser@0.3.2 </tspan>
<tspan x="10" y="1642">  │ └─┬ uue@3.1.0 </tspan>
<tspan x="10" y="1658">  │   └── extend@3.0.0 </tspan>
<tspan x="10" y="1674">  ├── node-uuid@1.4.8 </tspan>
<tspan x="10" y="1690">  ├── semver@5.3.0 </tspan>
<tspan x="10" y="1706">  ├── shelljs@0.5.3 </tspan>
<tspan x="10" y="1722">  ├─┬ smtp-server@1.17.0 </tspan>
<tspan x="10" y="1738">  │ ├── ipv6-normalize@1.0.1 </tspan>
<tspan x="10" y="1754">  │ └─┬ nodemailer-shared@1.1.0 </tspan>
<tspan x="10" y="1770">  │   └── nodemailer-fetch@1.6.0 </tspan>
<tspan x="10" y="1786">  ├── spamc@0.0.5 </tspan>
<tspan x="10" y="1802">  ├─┬ superagent@1.8.5 </tspan>
<tspan x="10" y="1818">  │ ├── component-emitter@1.2.1 </tspan>
<tspan x="10" y="1834">  │ ├── cookiejar@2.0.6 </tspan>
<tspan x="10" y="1850">  │ ├─┬ debug@2.6.3 </tspan>
<tspan x="10" y="1866">  │ │ └── ms@0.7.2 </tspan>
<tspan x="10" y="1882">  │ ├── extend@3.0.0 </tspan>
<tspan x="10" y="1898">  │ ├─┬ form-data@1.0.0-rc3 </tspan>
<tspan x="10" y="1914">  │ │ ├── async@1.5.2 </tspan>
<tspan x="10" y="1930">  │ │ ├─┬ combined-stream@1.0.5 </tspan>
<tspan x="10" y="1946">  │ │ │ └── delayed-stream@1.0.0 </tspan>
<tspan x="10" y="1962">  │ │ └─┬ mime-types@2.1.15 </tspan>
<tspan x="10" y="1978">  │ │   └── mime-db@1.27.0 </tspan>
<tspan x="10" y="1994">  │ ├── formidable@1.0.17 </tspan>
<tspan x="10" y="2010">  │ ├── methods@1.1.2 </tspan>
<tspan x="10" y="2026">  │ ├── qs@2.3.3 </tspan>
<tspan x="10" y="2042">  │ ├─┬ readable-stream@1.0.27-1 </tspan>
<tspan x="10" y="2058">  │ │ ├── core-util-is@1.0.2 </tspan>
<tspan x="10" y="2074">  │ │ ├── isarray@0.0.1 </tspan>
<tspan x="10" y="2090">  │ │ └── string_decoder@0.10.31 </tspan>
<tspan x="10" y="2106">  │ └── reduce-component@1.0.1 </tspan>
<tspan x="10" y="2122">  └─┬ winston@1.1.2 </tspan>
<tspan x="10" y="2138">    ├── async@1.0.0 </tspan>
<tspan x="10" y="2154">    ├── colors@1.0.3 </tspan>
<tspan x="10" y="2170">    ├── cycle@1.0.3 </tspan>
<tspan x="10" y="2186">    ├── eyes@0.1.8 </tspan>
<tspan x="10" y="2202">    ├── isstream@0.1.2 </tspan>
<tspan x="10" y="2218">    ├── pkginfo@0.3.1 </tspan>
<tspan x="10" y="2234">    └── stack-trace@0.0.9</tspan>
</text>
</svg>
